<svg aria-hidden="true" style="width:0;height:0;position:absolute;overflow:hidden" xmlns="http://www.w3.org/2000/svg"><defs><symbol id="icon-burger" viewBox="0 0 32 32"><path stroke-linejoin="round" stroke-linecap="round" stroke-width="2" d="M28 13.333H4M28 8H4M28 18.667H4M28 24H4"/></symbol><symbol id="icon-trash" viewBox="0 0 32 32" fill="none"><path d="M9 22a1 1 0 1 0 0-2 1 1 0 0 0 0 2ZM20 22a1 1 0 1 0 0-2 1 1 0 0 0 0 2Z" stroke-width="2" stroke-linecap="round" stroke-linejoin="round"/><path d="M1 1h4l2.68 13.39a2 2 0 0 0 2 1.61h9.72a2 2 0 0 0 2-1.61L23 6H6" stroke-width="1.8" stroke-linecap="round" stroke-linejoin="round"/></symbol><symbol id="icon-close" viewBox="0 0 32 32"><path fill="none" stroke="#f8f8f8" style="stroke:var(--color1,#f8f8f8)" stroke-linejoin="round" stroke-linecap="round" stroke-width="2" d="M24 8 8 24M8 8l16 16"/></symbol></defs></svg>